<svg xmlns="http://www.w3.org/2000/svg" xmlns:xlink="http://www.w3.org/1999/xlink" version="1.1" x="0px" y="0px" viewBox="0 0 64 80" enable-background="new 0 0 64 64" xml:space="preserve"  fill="#808080">
   <path d="M61.7070313,32.0409546l-5.2935791-5.2913208c0.9160767-1.6330566,1.4107666-3.4777832,1.4107666-5.401062  c0-2.9584961-1.1523438-5.7402344-3.2451172-7.8320313l-0.3564453-0.3564453  c-1.1087646-1.1087646-2.6533813-1.5189209-4.086731-1.2351685l-2.6837769-2.6832886  c-4.3193359-4.3183594-11.3486328-4.3193359-15.6699219,0l-6.791687,6.7897949  c-3.0362549-0.1653442-6.1278687,0.8961792-8.442688,3.2102051l-2.6826172,2.6816406  c-1.4326172-0.2851563-2.9794922,0.1279297-4.0878906,1.2368164l-0.3564453,0.3564453  c-2.0927734,2.0917969-3.2451172,4.8735352-3.2451172,7.8320313c0,1.9232788,0.4946899,3.7680054,1.4107666,5.401062  l-5.2935791,5.2913208C2.1054688,42.2284546,2,42.4828491,2,42.7479858s0.1054688,0.5195313,0.2929688,0.7070313  l14.2548828,14.2495117c0.1953125,0.1953125,0.4511719,0.2929688,0.7070313,0.2929688s0.5117188-0.0976563,0.7070313-0.2929688  l5.7021484-5.699707c0.0061646-0.0061646,0.0083008-0.0150757,0.0143433-0.0214233  c0.2340698,0.0328979,0.4683838,0.0673218,0.7044067,0.0673218c1.2880859,0,2.5771484-0.4902344,3.5585938-1.4711914  l9.204834-9.2012939c0.7623291,0.4846802,1.6143188,0.7359619,2.4768066,0.7359619  c0.2490845,0,0.4979858-0.0359497,0.7461548-0.0761719l5.6688843,5.6665039  c0.1953125,0.1953125,0.4511719,0.2929688,0.7070313,0.2929688s0.5117188-0.0976563,0.7070313-0.2929688l14.2548828-14.2495117  C61.8945313,33.2675171,62,33.0131226,62,32.7479858S61.8945313,32.2284546,61.7070313,32.0409546z M33.1962891,10.6557007  c3.5410156-3.5390625,9.3007813-3.5380859,12.8417969,0l2.1796875,2.1793213  c-0.1340332,0.1064453-0.2745361,0.2012329-0.3984375,0.3250732c-1.5810547,1.5805664-1.3935547,4.109375-0.3925781,5.7895508  c0.1972656,0.3300781,0.4121094,0.8408203,0.3232422,1.4023438c-0.5971069,3.7564697-2.8157959,7.4737549-6.0304565,10.2146606  c-0.3932495-1.5750732-1.1968994-3.0227661-2.3748169-4.2000122l-7.1269531-7.125  c-1.3804321-1.380249-3.0390625-2.3143311-4.7966309-2.8123779L33.1962891,10.6557007z M17.2548828,55.5834351L4.4140625,42.7479858  l4.2880859-4.2856445l12.8408203,12.8354492L17.2548828,55.5834351z M26.5273438,49.164978  c-1.1816406,1.1826172-3.1064453,1.1821289-4.2880859,0.0004883L10.8349609,37.7660522  c-1.7148438-1.7143555-2.6591797-3.9936523-2.6591797-6.4174805c0-2.4243164,0.9443359-4.7036133,2.6591797-6.4179688  l0.3564453-0.3564453c0.4931641-0.4926758,1.1396484-0.7387695,1.7871094-0.7387695s1.2949219,0.2460938,1.7880859,0.7387695  c0.4775391,0.4775391,0.7402344,1.1118164,0.7402344,1.7866211s-0.2626953,1.309082-0.7402344,1.7866211l-3.2080078,3.206543  c-0.390625,0.3901367-0.390625,1.0234375,0,1.4140625s1.0234375,0.390625,1.4140625,0l3.2080078-3.2060547  c0.8554688-0.8549805,1.3261719-1.9916992,1.3261719-3.2011719c0-1.2089844-0.4707031-2.3457031-1.3261719-3.2011719  c-0.1220703-0.1220703-0.25-0.2358398-0.3818359-0.3408203l2.1630859-2.1630859  c1.9755859-1.9744873,4.6422119-2.8442383,7.2285767-2.6154785c0.0576782,0.0101929,0.1134033,0.0334473,0.171814,0.0334473  c0.0149536,0,0.0290527-0.0078735,0.0439453-0.0085449c1.9734497,0.2218628,3.8879395,1.0814819,5.3974609,2.5905762  l7.1269531,7.1254883C39.2646484,29.1141968,40,30.887146,40,32.7733765c0,1.8857422-0.7353516,3.6586914-2.0693359,4.9926758  l-1.3048096,1.3042603c-0.1210938,0.0488281-0.2346802,0.1219482-0.3328857,0.2201538  c-0.0980835,0.0980835-0.1712646,0.2116089-0.2200928,0.3326416L26.5273438,49.164978z M38.6151123,39.9099731l0.7296143-0.7293701  c1.6837769-1.6832886,2.6190186-3.9135132,2.6494751-6.2888794c4.1160889-3.093811,6.9995117-7.6195679,7.7304077-12.225769  c0.1455078-0.9121094-0.0546875-1.859375-0.5791016-2.7402344c-0.5996094-1.0048828-0.7304688-2.5332031,0.0878906-3.3510742  c0.9863281-0.9863281,2.5908203-0.9858398,3.5751953-0.0004883l0.3564453,0.3564453  c1.7148438,1.7143555,2.6591797,3.9936523,2.6591797,6.4179688c0,2.4238281-0.9443359,4.703125-2.6591797,6.4174805  L41.7607422,39.1654663C40.8259277,40.0999146,39.6394043,40.3501587,38.6151123,39.9099731z M46.7451172,45.5834351  l-4.2880859-4.2856445l12.8408203-12.8354492l4.2880859,4.2856445L46.7451172,45.5834351z"/>
</svg>
