<svg xmlns="http://www.w3.org/2000/svg" viewBox="0 0 96 96" x="0px" y="0px" fill="#808080">
    <g>
        <path d="M48,8C29.5117,8,16,39.5684,16,56a32,32,0,0,0,64,0C80,39.5684,66.4883,8,48,8Zm0,76A28.0327,28.0327,0,0,1,20,56c0-16.5508,13.5625-44,28-44S76,39.4492,76,56A28.0327,28.0327,0,0,1,48,84Z"/>
        <path d="M48,36A20,20,0,1,0,68,56,20.0236,20.0236,0,0,0,48,36Zm0,36A16,16,0,1,1,64,56,16.0171,16.0171,0,0,1,48,72Z"/>
        <path d="M59.7578,53.6035A11.9615,11.9615,0,0,0,50.3984,44.24a2.001,2.001,0,0,0-.7968,3.9219,7.9581,7.9581,0,0,1,6.2343,6.2344A2,2,0,0,0,57.793,56a2.03,2.03,0,0,0,.4023-.0391A2.0015,2.0015,0,0,0,59.7578,53.6035Z"/>
    </g>
</svg>
