<svg xmlns="http://www.w3.org/2000/svg" xmlns:xlink="http://www.w3.org/1999/xlink" version="1.1" x="0px" y="0px" viewBox="0 0 100 100" enable-background="new 0 0 100 100" xml:space="preserve">
   <g>
      <path d="M50,47.807c-3.603,0-6.625-2.453-7.509-5.778c-13.41,0.208-25.268,1.006-27.205,2.414   c0.915,7.264,4.057,13.83,8.718,19.002c5.23,5.803,10.186,11.846,15.066,17.946L50,95.053l10.929-13.662   c4.885-6.107,9.852-12.152,15.083-17.965c4.65-5.167,7.785-11.724,8.7-18.975c-1.94-1.377-13.797-2.187-27.206-2.412   C56.619,45.359,53.599,47.807,50,47.807z M60.028,45.979c10.777,0.243,17.05,0.796,20.23,1.274   C76.975,61.081,64.508,71.141,50,71.141c-14.517,0-26.989-10.072-30.264-23.912c3.166-0.48,9.435-1.033,20.227-1.263   c2.06,3.482,5.845,5.731,10.037,5.731C54.184,51.696,57.966,49.453,60.028,45.979z" style="fill: #1a1a1a"/>
      <path d="M50,4.947c-19.33,0-35,15.67-35,35c0,0.289,0.015,0.574,0.022,0.861c0.127-0.51,1.542-0.951,3.879-1.323   C19.138,23.195,31.867,9.241,47.932,8.129C49.051,8.052,50,8.953,50,10.074c0,1.022-0.794,1.865-1.814,1.932   c-14.114,0.933-25.319,12.672-25.404,26.999c5.068-0.496,12.123-0.809,19.678-0.937c0.841-3.386,3.893-5.899,7.54-5.899   c3.643,0,6.692,2.508,7.537,5.889c14.427,0.224,27.05,1.133,27.441,2.748C84.985,40.519,85,40.235,85,39.947   C85,20.617,69.33,4.947,50,4.947z"  style="fill: #f23e44"/>
   </g>
</svg>
